<svg width="72" height="83" viewBox="0 0 72 83" fill="none" xmlns="http://www.w3.org/2000/svg">
<path d="M6.72201 25.123C16.7871 16.7063 49.3859 25.0914 41.9224 40.0821C39.6731 44.6001 33.4079 51.5688 27.8098 51.2303C22.3459 50.8999 18.9886 48.6768 21.4608 43.6379C25.6536 35.0924 37.1096 29.613 45.8974 33.9246C51.1683 36.5106 56.5229 41.4229 58.0254 43.5239C59.2243 45.2004 61.206 48.1805 61.3737 52.0041C61.5604 56.2594 59.8577 63.7306 59.2211 61.0456" stroke="#9A0600" stroke-width="4" stroke-linecap="round"/>
<path d="M51.9978 54.8149C52.7721 56.3093 54.2411 57.3202 55.2861 58.5857C56.2936 59.8059 57.2711 61.0514 58.3721 62.1762C58.9002 62.7158 59.4698 63.1876 59.9151 63.8041C60.6375 64.8043 60.2196 64.2635 60.6938 63.4791C62.5909 60.3409 66.6861 59.0253 68.8524 56.3107" stroke="#9A0600" stroke-width="4" stroke-linecap="round"/>
</svg>
