<svg width="72" height="83" viewBox="0 0 72 83" fill="none" xmlns="http://www.w3.org/2000/svg">
<path d="M65.2213 25.124C55.1563 16.7073 22.5575 25.0923 30.021 40.0831C32.2703 44.601 38.5355 51.5698 44.1336 51.2313C49.5974 50.9009 52.9548 48.6778 50.4825 43.6389C46.2898 35.0934 34.8337 29.614 26.046 33.9255C20.7751 36.5116 15.4205 41.4238 13.9179 43.5249C12.7191 45.2013 10.7374 48.1815 10.5696 52.0051C10.3829 56.2604 12.0856 63.7316 12.7222 61.0465" stroke="white" stroke-width="4" stroke-linecap="round"/>
<path d="M19.9456 54.8159C19.1713 56.3103 17.7023 57.3212 16.6573 58.5867C15.6497 59.8069 14.6723 61.0524 13.5713 62.1772C13.0432 62.7167 12.4736 63.1886 12.0283 63.8051C11.3059 64.8053 11.7237 64.2645 11.2495 63.4801C9.35244 60.3419 5.25724 59.0263 3.09099 56.3117" stroke="white" stroke-width="4" stroke-linecap="round"/>
</svg>
